<svg xmlns="http://www.w3.org/2000/svg" viewBox="0 0 32 32" width="32" height="32">
  <!-- Black background -->
  <rect width="32" height="32" fill="#000000"/>
  
  <!-- Atomic orbits - three elliptical orbits intersecting behind shield -->
  <ellipse cx="16" cy="16" rx="10" ry="6" fill="none" stroke="#3b82f6" stroke-width="0.8" opacity="0.6"/>
  <ellipse cx="16" cy="16" rx="10" ry="6" fill="none" stroke="#3b82f6" stroke-width="0.8" opacity="0.6" transform="rotate(60 16 16)"/>
  <ellipse cx="16" cy="16" rx="10" ry="6" fill="none" stroke="#3b82f6" stroke-width="0.8" opacity="0.6" transform="rotate(120 16 16)"/>
  
  <!-- Shield shape - blue, outlined and filled with medium blue -->
  <path d="M16 2 L28 8 L28 20 C28 25.5 16 30 16 30 S4 25.5 4 20 L4 8 Z" 
        fill="#3b82f6"
        stroke="#3b82f6"
        stroke-width="0.5"/>
  
  <!-- ECG/Heartbeat waveform - yellow, prominent with sharp peaks and valleys -->
  <path d="M8 18 L10 18 L11 14 L12 20 L13 16 L14 18 L24 18" 
        stroke="#fbbf24" 
        stroke-width="1.5" 
        stroke-linecap="round" 
        stroke-linejoin="round" 
        fill="none"/>
  
  <!-- Electrons - three yellow circles positioned on orbits -->
  <!-- Top-right electron -->
  <circle cx="22" cy="12" r="1.5" fill="#fbbf24"/>
  <!-- Bottom-left electron -->
  <circle cx="10" cy="20" r="1.5" fill="#fbbf24"/>
  <!-- Bottom-right electron -->
  <circle cx="22" cy="20" r="1.5" fill="#fbbf24"/>
</svg>
